<?xml version="1.0" encoding="UTF-8"?>
<svg width="65px" height="57px" viewBox="0 0 65 57" version="1.1" xmlns="http://www.w3.org/2000/svg" xmlns:xlink="http://www.w3.org/1999/xlink">
    <!-- Generator: Sketch 53.1 (72631) - https://sketchapp.com -->
    <title>Group</title>
    <desc>Created with Sketch.</desc>
    <g id="Page-1" stroke="none" stroke-width="1" fill="none" fill-rule="evenodd">
        <g id="Group" transform="translate(0.000000, 0.500000)" fill="#000000" fill-rule="nonzero">
            <path d="M43.9,44.2 C43.8,44.1 43.7,44 43.7,43.8 L42.2,43.8 C42.2,44.4 42.5,44.9 42.9,45.4 C43.2,45.6 43.5,45.8 43.8,45.9 L43.8,46.7 L45.3,46.7 L45.3,45.9 C45.6,45.8 45.9,45.6 46.2,45.4 C46.7,45 46.9,44.4 46.9,43.8 C46.9,43.2 46.6,42.7 46.2,42.2 C45.8,41.8 45.2,41.6 44.6,41.6 C44.3,41.6 44.1,41.5 43.9,41.4 C43.8,41.3 43.7,41.2 43.7,41 C43.7,40.8 43.8,40.6 43.9,40.6 C44.2,40.3 44.9,40.3 45.2,40.6 C45.3,40.7 45.4,40.8 45.4,41 L47,41 C47,40.4 46.7,39.9 46.3,39.4 C46,39.2 45.7,39 45.4,38.9 L45.4,38 L43.9,38 L43.9,38.9 C43.6,39 43.3,39.1 43,39.4 C42.5,39.8 42.3,40.4 42.3,41 C42.3,41.6 42.6,42.2 43,42.6 C43.4,43 44,43.2 44.6,43.2 C44.9,43.2 45.1,43.3 45.3,43.4 C45.4,43.5 45.5,43.6 45.5,43.8 C45.5,44 45.4,44.2 45.3,44.2 C44.9,44.5 44.3,44.5 43.9,44.2 Z" id="Path"></path>
            <path d="M62,35 C61.8,33.1 60.2,31.6 58.3,31.6 L46.8,31.6 L46.8,17.3 L51.9,21.2 L52.8,20 L26.4,-3.55271368e-15 L12.4,10.6 L12.4,5.1 L10.9,5.1 L10.9,11.7 L0,20.1 L0.9,21.3 L6,17.3 L6,40.5 L2.1,40.5 L2.1,42 L27.1,42 L27.1,49.4 C27.1,51.4 28.6,52.9 30.5,53.1 C30.6,54.8 32,56.1 33.7,56.1 L61.7,56.1 C63.5,56.1 64.9,54.7 64.9,52.9 L64.9,38.2 C65,36.5 63.7,35.2 62,35 Z M12.4,40.5 L12.4,25.3 L21.7,25.3 L21.7,40.5 L12.4,40.5 Z M27.1,35.3 L27.1,40.5 L23.2,40.5 L23.2,23.9 L10.9,23.9 L10.9,40.5 L7.5,40.5 L7.5,16.2 L26.4,1.9 L45.3,16.3 L45.3,31.7 L30.9,31.7 C28.8,31.6 27.1,33.3 27.1,35.3 Z M28.6,49.3 L28.6,35.3 C28.6,34.1 29.6,33.1 30.8,33.1 L58.2,33.1 C59.4,33.1 60.4,34.1 60.4,35.3 L60.4,49.3 C60.4,50.5 59.4,51.5 58.2,51.5 L30.9,51.5 C29.6,51.6 28.6,50.6 28.6,49.3 Z M63.5,52.8 C63.5,53.7 62.7,54.5 61.8,54.5 L33.8,54.5 C32.9,54.5 32.2,53.9 32.1,53 L58.4,53 C60.5,53 62.1,51.3 62.1,49.3 L62.1,36.5 C62.9,36.6 63.6,37.3 63.6,38.2 L63.6,52.8 L63.5,52.8 Z" id="Shape"></path>
            <path d="M34.1,48.4 L34.1,49.1 L55.2,49.1 L55.2,48.4 C55.2,47.2 56.2,46.2 57.4,46.2 L58.1,46.2 L58.1,38.5 L57.4,38.5 C56.2,38.5 55.2,37.5 55.2,36.3 L55.2,35.5 L34.1,35.5 L34.1,36.2 C34.1,37.4 33.1,38.4 31.9,38.4 L31.2,38.4 L31.2,46 L31.9,46 C33.1,46.1 34.1,47.1 34.1,48.4 Z M32.6,40 C34.1,39.7 35.2,38.5 35.5,37.1 L53.7,37.1 C54,38.6 55.2,39.7 56.6,40 L56.6,44.8 C55.1,45.1 54,46.3 53.7,47.7 L35.5,47.7 C35.2,46.2 34,45.1 32.6,44.8 L32.6,40 Z" id="Shape"></path>
            <path d="M40.5,17.5 L28.2,17.5 L28.2,24.8 L40.5,24.8 L40.5,17.5 Z M39,23.3 L29.7,23.3 L29.7,19 L39,19 L39,23.3 Z" id="Shape"></path>
        </g>
    </g>
</svg>