<?xml version="1.0" encoding="UTF-8"?>
<svg width="65px" height="63px" viewBox="0 0 65 63" version="1.1" xmlns="http://www.w3.org/2000/svg" xmlns:xlink="http://www.w3.org/1999/xlink">
    <!-- Generator: Sketch 53.1 (72631) - https://sketchapp.com -->
    <title>Group</title>
    <desc>Created with Sketch.</desc>
    <g id="Page-1" stroke="none" stroke-width="1" fill="none" fill-rule="evenodd">
        <g id="Group" transform="translate(0.000000, 0.300000)" fill="#000000" fill-rule="nonzero">
            <path d="M47.1,52.4 C47.6,52 48.4,52 48.8,52.4 C49,52.6 49.1,52.8 49.1,53 L50.6,53 C50.6,52.3 50.3,51.7 49.8,51.3 C49.5,51 49.1,50.9 48.7,50.8 L48.7,49.7 L47.2,49.7 L47.2,50.7 C46.8,50.8 46.4,51 46.1,51.2 C45.6,51.7 45.3,52.3 45.3,52.9 C45.3,53.6 45.6,54.2 46.1,54.6 C46.6,55 47.3,55.3 47.9,55.3 C48.2,55.3 48.5,55.4 48.8,55.6 C49,55.8 49.1,56 49.1,56.2 C49.1,56.4 49,56.6 48.8,56.8 C48.3,57.2 47.5,57.2 47.1,56.8 C47,56.7 46.8,56.5 46.8,56.2 L45.3,56.2 C45.3,56.9 45.6,57.5 46.1,57.9 C46.4,58.2 46.8,58.4 47.2,58.5 L47.2,59.7 L48.7,59.7 L48.7,58.6 C49.1,58.5 49.5,58.3 49.8,58 C50.3,57.5 50.6,56.9 50.6,56.3 C50.6,55.7 50.3,55 49.8,54.6 C49.3,54.2 48.6,53.9 48,53.9 C47.7,53.9 47.4,53.8 47.1,53.6 C47,53.5 46.8,53.3 46.8,53 C46.8,52.7 47,52.5 47.1,52.4 Z" id="Path"></path>
            <path d="M56.7,34.6 C54.6,34.6 52.4,35 50.8,35.7 L50.8,20.3 L53.8,20.3 C55.2,20.3 56.4,19.1 56.4,17.7 C56.4,16.3 55.2,15.1 53.8,15.1 L52,15.1 L29.5,3.55271368e-15 L7,15.1 L5,15.1 C3.6,15.1 2.4,16.3 2.4,17.7 C2.4,19.1 3.6,20.3 5,20.3 L8,20.3 L8,44.1 L6.1,44.1 C4.7,44.1 3.5,45.3 3.5,46.7 C3.5,47.1 3.6,47.5 3.8,47.8 L2.6,47.8 C1.2,47.8 0,49 0,50.4 C0,51.8 1.2,53 2.6,53 L30.9,53 L30.9,58.6 C30.9,60.8 34.3,62.5 38.8,62.5 C40.8,62.5 42.7,62.1 44.2,61.5 C45.3,62.1 46.6,62.5 48,62.5 C49.3,62.5 50.4,62.2 51.5,61.7 C53,62.2 54.8,62.5 56.7,62.5 C60.7,62.5 65,61.1 65,58.6 L65,38.5 C65,35.9 60.7,34.6 56.7,34.6 Z M63.5,38.5 C63.5,39.5 60.8,40.9 56.7,40.9 C52.5,40.9 49.9,39.5 49.9,38.5 C49.9,37.5 52.6,36.1 56.7,36.1 C60.9,36.1 63.5,37.5 63.5,38.5 Z M49.4,36.6 C48.8,37.1 48.5,37.7 48.5,38.5 L48.5,47 C48.4,47 48.2,47 48.1,47 C47.7,47 47.3,47 46.8,47.1 L46.8,43.4 C46.8,43.1 46.8,42.9 46.7,42.7 L46.7,20.3 L49.5,20.3 L49.5,36.6 L49.4,36.6 Z M41.5,50.4 C40.7,50.6 39.8,50.6 38.9,50.6 C34.9,50.6 32.5,49.2 32.5,48.2 L32.5,45.5 C33.9,46.5 36.2,47.1 38.9,47.1 C41.6,47.1 43.9,46.5 45.3,45.5 L45.3,47.3 C43.7,48 42.4,49.1 41.5,50.4 Z M20.4,44.1 L13.8,44.1 L13.8,20.3 L20.4,20.3 L20.4,44.1 Z M21.9,20.3 L24.7,20.3 L24.7,44.1 L21.9,44.1 L21.9,20.3 Z M26.2,20.3 L32.8,20.3 L32.8,40.7 C31.7,41.4 31,42.2 31,43.2 L31,44 L26.2,44 L26.2,20.3 L26.2,20.3 Z M38.8,40.9 C42.8,40.9 45.2,42.3 45.2,43.3 C45.2,44.3 42.8,45.7 38.8,45.7 C34.8,45.7 32.4,44.3 32.4,43.3 C32.4,42.3 34.9,40.9 38.8,40.9 Z M45.1,40.9 C43.7,40 41.4,39.4 38.8,39.4 C38.7,39.4 38.6,39.4 38.5,39.4 L38.5,20.3 L45.1,20.3 L45.1,40.9 L45.1,40.9 Z M37,39.5 C36,39.6 35,39.8 34.2,40.1 L34.2,20.3 L37,20.3 L37,39.5 Z M29.5,1.8 L49.3,15.2 L9.6,15.2 L29.5,1.8 Z M5,18.8 C4.4,18.8 3.9,18.3 3.9,17.7 C3.9,17.1 4.4,16.6 5,16.6 L53.8,16.6 C54.4,16.6 54.9,17.1 54.9,17.7 C54.9,18.3 54.4,18.8 53.8,18.8 L5,18.8 Z M9.6,20.3 L12.4,20.3 L12.4,44.1 L9.6,44.1 L9.6,20.3 Z M5,46.7 C5,46.1 5.5,45.6 6.1,45.6 L30.9,45.6 L30.9,47.8 L6.1,47.8 C5.5,47.8 5,47.3 5,46.7 Z M2.6,51.4 C2,51.4 1.5,50.9 1.5,50.3 C1.5,49.7 2,49.2 2.6,49.2 L6.1,49.2 L30.9,49.2 L30.9,51.4 L2.6,51.4 Z M32.4,50.6 C33.8,51.6 36.1,52.2 38.8,52.2 C39.4,52.2 40,52.2 40.6,52.1 C40.3,52.9 40.1,53.8 40.1,54.7 C40.1,55.1 40.1,55.4 40.2,55.8 C39.7,55.8 39.2,55.9 38.7,55.9 C34.7,55.9 32.3,54.5 32.3,53.5 L32.3,50.6 L32.4,50.6 Z M38.8,60.9 C34.8,60.9 32.4,59.5 32.4,58.5 L32.4,55.7 C33.8,56.7 36.1,57.3 38.8,57.3 C39.4,57.3 40,57.3 40.6,57.2 C41,58.4 41.8,59.5 42.7,60.4 C41.6,60.7 40.3,60.9 38.8,60.9 Z M41.7,54.7 C41.7,51.2 44.5,48.4 48,48.4 C51.5,48.4 54.3,51.2 54.3,54.7 C54.3,58.2 51.5,61 48,61 C44.5,60.9 41.7,58.1 41.7,54.7 Z M56.7,60.9 C55.4,60.9 54.1,60.7 53,60.5 C53.9,59.7 54.6,58.7 55.1,57.6 C55.6,57.6 56.1,57.7 56.7,57.7 C59.3,57.7 61.9,57.1 63.5,56.1 L63.5,58.5 C63.5,59.5 60.9,60.9 56.7,60.9 Z M56.7,56.2 C56.3,56.2 55.9,56.2 55.6,56.2 C55.7,55.7 55.8,55.2 55.8,54.7 C55.8,54 55.7,53.3 55.5,52.6 C55.9,52.6 56.3,52.6 56.8,52.6 C59.4,52.6 62,52 63.6,51 L63.6,53.8 C63.5,54.8 60.9,56.2 56.7,56.2 Z M56.7,51.1 C56.1,51.1 55.4,51.1 54.8,51 C53.8,49.1 52,47.7 49.9,47.2 L49.9,45.9 C51.5,46.9 54.2,47.5 56.7,47.5 C59.3,47.5 61.9,46.9 63.5,45.9 L63.5,48.7 C63.5,49.7 60.9,51.1 56.7,51.1 Z M56.7,46 C52.5,46 49.9,44.6 49.9,43.6 L49.9,40.7 C51.5,41.7 54.2,42.3 56.7,42.3 C59.3,42.3 61.9,41.7 63.5,40.7 L63.5,43.5 C63.5,44.6 60.9,46 56.7,46 Z" id="Shape"></path>
            <rect id="Rectangle" x="38.4" y="11.8" width="1.5" height="1.5"></rect>
            <rect id="Rectangle" x="34.6" y="11.8" width="1.5" height="1.5"></rect>
            <rect id="Rectangle" x="30.7" y="11.8" width="1.5" height="1.5"></rect>
            <rect id="Rectangle" x="23.1" y="11.8" width="1.5" height="1.5"></rect>
            <rect id="Rectangle" x="19.3" y="11.8" width="1.5" height="1.5"></rect>
            <rect id="Rectangle" x="26.9" y="11.8" width="1.5" height="1.5"></rect>
        </g>
    </g>
</svg>