<svg xmlns="http://www.w3.org/2000/svg" width="25" height="24" viewBox="0 0 25 24">
    <g fill="none" fill-rule="evenodd">
        <path fill="#FFF" d="M13.602 20.336h9.73V3.039h-9.73z"/>
        <path fill="#CB4A32" fill-rule="nonzero" d="M23.276 19.815h-9.403v-2.018h7.332v-.937h-7.332v-1.583h7.332v-.936h-7.332v-2.603a3.179 3.179 0 0 0 2.451 1.164c1.78 0 3.222-1.482 3.222-3.31h-3.222V6.28c-.982 0-1.86.452-2.451 1.165V3.76h9.404l-.001 16.055zm0-16.857h-9.403V.433L.27 2.858v18.394l13.602 2.426v-3.06h9.404c.43 0 .78-.36.78-.803V3.76a.793.793 0 0 0-.78-.802"/>
        <path fill="#CB4A32" fill-rule="nonzero" d="M16.823 5.812v3.311h3.221c0-1.829-1.442-3.311-3.22-3.311"/>
        <path fill="#FFF" d="M6.027 11.914c.542.042 1.072.147 1.402-.432.249-.436.228-1.233-.061-1.568-.374-.434-.856-.372-1.341-.293v2.293zm-.039 4.104H4.626V8.202c1.05 0 2.097-.03 3.138.02.274.014.592.223.794.438.774.82.774 1.844.543 2.864-.206.908-.776 1.547-1.675 1.772-.448.112-.927.092-1.438.135v2.587z"/>
    </g>
</svg>
