<svg xmlns="http://www.w3.org/2000/svg" width="24" height="24" viewBox="0 0 24 24">
    <g fill="none" fill-rule="nonzero">
        <rect width="24" height="24" fill="#F36" rx="2.175"/>
        <path fill="#FFF" d="M8.02 7.551a1.44 1.44 0 1 0-1.465-1.444A1.45 1.45 0 0 0 8.02 7.55zM4.98 15.287c-.083.356-.126.72-.13 1.086 0 1.272.691 2.117 2.157 2.117 1.216 0 2.202-.722 2.912-1.889l-.433 1.74h2.418l1.38-5.535c.344-1.401 1.012-2.129 2.026-2.129.798 0 1.294.496 1.294 1.315.003.263-.035.525-.111.776l-.712 2.544c-.1.35-.152.713-.15 1.078 0 1.208.711 2.091 2.2 2.091 1.271 0 2.285-.819 2.845-2.784l-.948-.366c-.474 1.314-.884 1.553-1.208 1.553-.323 0-.496-.216-.496-.647a2.86 2.86 0 0 1 .108-.672l.69-2.478a5.465 5.465 0 0 0 .237-1.567c0-1.854-1.121-2.821-2.48-2.821-1.272 0-2.566 1.152-3.212 2.354l.474-2.167h-3.686l-.518 1.91h1.728l-1.061 4.252c-.835 1.854-2.367 1.884-2.559 1.841-.316-.07-.517-.192-.517-.6.01-.335.06-.666.15-.988l1.613-6.414H4.896l-.518 1.908H6.08l-1.1 4.492z"/>
    </g>
</svg>
