<svg xmlns="http://www.w3.org/2000/svg" width="24" height="27" viewBox="0 0 24 27"><path fill="#393939" fill-rule="nonzero" d="M13.333 18.522V21.6h-2.666v-3.078A2.692 2.692 0 0 1 9.333 16.2c0-.315.054-.621.16-.9A2.64 2.64 0 0 1 12 13.5a2.64 2.64 0 0 1 2.507 1.8c.106.279.16.585.16.9 0 .999-.543 1.854-1.334 2.322zM8 6.75C8 4.518 9.796 2.7 12 2.7c2.204 0 4 1.818 4 4.05V8.1H8V6.75zM21.333 8.1h-2.666V6.75C18.667 3.042 15.662 0 12 0S5.333 3.042 5.333 6.75V8.1H2.667C1.2 8.1 0 9.315 0 10.8v13.5C0 25.785 1.2 27 2.667 27h18.666C22.8 27 24 25.785 24 24.3V10.8c0-1.485-1.2-2.7-2.667-2.7z"/></svg>