<svg xmlns="http://www.w3.org/2000/svg" width="25" height="24" viewBox="0 0 25 24">
    <g fill="none" fill-rule="nonzero">
        <path fill="#207245" d="M12.789 0h1.65v2.222c2.78 0 5.561.006 8.342-.008.469.02.986-.014 1.394.267.286.41.253.933.272 1.405-.014 4.822-.008 9.642-.005 14.461-.014.809.075 1.634-.095 2.43-.11.579-.805.592-1.27.612-2.877.008-5.758-.006-8.638 0v2.5h-1.725C8.48 23.119 4.239 22.409 0 21.667V2.225C4.264 1.483 8.528.753 12.789 0z"/>
        <path fill="#FFF" d="M14.439 3.056h9.167v17.5h-9.167v-1.667h2.222v-1.945H14.44v-1.11h2.222v-1.945H14.44v-1.111h2.222v-1.945H14.44v-1.11h2.222V7.777H14.44V6.667h2.222V4.722H14.44V3.056z"/>
        <path fill="#207245" d="M17.772 4.722h3.89v1.945h-3.89V4.722z"/>
        <path fill="#FFF" d="M8.228 7.325a85.074 85.074 0 0 1 1.889-.114 575.569 575.569 0 0 1-2.242 4.553c.764 1.555 1.544 3.1 2.311 4.655-.67-.038-1.336-.08-2.005-.127-.473-1.159-1.048-2.278-1.387-3.49-.377 1.129-.916 2.192-1.35 3.298a66.718 66.718 0 0 1-1.825-.058c.714-1.398 1.403-2.806 2.14-4.195-.626-1.43-1.312-2.833-1.956-4.255.61-.036 1.222-.073 1.833-.106.414 1.086.867 2.158 1.208 3.272.367-1.18.914-2.291 1.384-3.433z"/>
        <path fill="#207245" d="M17.772 7.778h3.89v1.944h-3.89V7.778zM17.772 10.833h3.89v1.945h-3.89v-1.945zM17.772 13.889h3.89v1.944h-3.89V13.89zM17.772 16.944h3.89v1.945h-3.89v-1.945z"/>
    </g>
</svg>
