<?xml version="1.0" encoding="UTF-8"?>
<svg width="64px" height="64px" viewBox="0 0 64 64" version="1.1" xmlns="http://www.w3.org/2000/svg" xmlns:xlink="http://www.w3.org/1999/xlink">
    <title>Development</title>
    <defs>
        <rect id="path-1" x="1.13686838e-13" y="0" width="64" height="64"></rect>
    </defs>
    <g id="Page-1" stroke="none" stroke-width="1" fill="none" fill-rule="evenodd">
        <g id="Artboard" transform="translate(-284.000000, -85.000000)">
            <g id="Development" transform="translate(284.000000, 85.000000)">
                <mask id="mask-2" fill="white">
                    <use xlink:href="#path-1"></use>
                </mask>
                <g id="Mask"></g>
                <path d="M64,31.9689975 L64,31.8464693 C64,31.1739731 63.544965,30.5852748 62.8903657,30.4134537 C61.2563442,29.9846053 59.3880823,29.0008595 59.447527,25.1482657 C59.447527,23.9258013 59.6081692,22.3547656 59.9351151,20.418258 C60.1148645,18.9986219 60.3830733,16.3241289 60.3830733,14.7643601 C60.3830733,10.3470103 58.2338645,8.07038161 53.9920608,8.00066734 C53.1810653,7.97602088 52.4924975,8.63725019 52.478344,9.45551266 C52.4641905,10.2737751 53.1194976,10.9490881 53.9418158,10.9631718 C56.5304908,11.0075354 57.4058848,11.9659306 57.4058848,14.7643601 C57.4058848,16.1009024 57.1567832,18.6577966 56.9897719,19.9880012 C56.6444265,22.0252072 56.4689231,23.7617263 56.4689231,25.126436 C56.4151398,28.6036994 57.6479096,30.6718895 59.2288554,31.8943539 C57.3825315,33.3315946 56.4215089,35.6504744 56.4689231,38.6664969 C56.4689231,40.1135962 56.6387651,41.8226521 56.9791568,43.8183112 C57.1865055,45.5083541 57.4065924,47.7877996 57.4065924,49.109554 C57.4065924,51.8826328 56.4597233,52.9452473 53.9149242,53.0374955 C53.0926059,53.0649587 52.450037,53.7515387 52.4804671,54.5698011 C52.5080664,55.3690506 53.1690348,55.9985916 53.9665845,55.9985916 C53.9842763,55.9985916 54.0026759,55.9985916 54.0203678,55.9971833 C56.9246658,55.8943723 60.383781,54.6162773 60.383781,49.109554 C60.383781,47.2800825 60.0426816,44.3246199 59.926623,43.3950962 C59.6088769,41.5205569 59.4482347,39.9276914 59.4482347,38.6432588 C59.4015281,35.6849794 60.5182392,33.9738109 62.8620587,33.4097591 C63.5301038,33.2477966 64,32.654169 64,31.9689975 Z" id="Path" fill="#000000" fill-rule="nonzero" mask="url(#mask-2)"></path>
                <path d="M1.138649,33.4104633 C3.48317613,33.9745151 4.59988721,35.6849794 4.55247299,38.6672011 C4.55247299,39.9283956 4.39041543,41.5212611 4.0634696,43.4634021 C3.9587337,44.3260282 3.6169267,47.2814909 3.6169267,49.1109624 C3.6169267,54.6176857 7.07674956,55.8957807 9.98033991,55.9985916 C9.99803178,56 10.0164313,56 10.0341232,56 C10.8316729,56 11.4926413,55.3697548 11.521656,54.5712095 C11.5506706,53.752947 10.9081018,53.0663671 10.0857835,53.0389039 C7.54098433,52.9466557 6.59411524,51.883337 6.59411524,49.1109624 C6.59411524,47.7892079 6.81420215,45.5104667 7.01022811,43.890138 C7.35981954,41.8240605 7.52966153,40.1150045 7.52966153,38.6911433 C7.57778343,35.6582204 6.61746851,33.3344113 4.77114455,31.8957623 C6.35209041,30.677523 7.5841525,28.6128538 7.52966153,25.1496741 C7.52966153,23.7631347 7.35557349,22.0259114 7.01942789,20.0485611 C6.84250915,18.659205 6.59340757,16.1023108 6.59340757,14.7657685 C6.59340757,11.9666348 7.46809381,11.0082396 10.0574765,10.9645802 C10.8797948,10.9504965 11.5351018,10.2751835 11.5209483,9.45692102 C11.5067948,8.63865856 10.8281345,7.95912045 10.0058162,8.00207571 C5.76542787,8.07249417 3.61621903,10.3484187 3.61621903,14.7657685 C3.61621903,16.3255373 3.88442783,19.0007345 4.07266937,20.4802262 C4.39041543,22.3561739 4.55247299,23.9272097 4.55247299,25.1729122 C4.61191769,29.0022679 2.74294813,29.9853095 1.10821898,30.4141579 C0.454327322,30.585979 0,31.1746773 0,31.8471735 L0,31.9697016 C0,32.654169 0.469896171,33.2477966 1.138649,33.4104633 Z" id="Path" fill="#000000" fill-rule="nonzero" mask="url(#mask-2)"></path>
                <path d="M35.9612106,13.0236159 C35.2315977,12.6496939 34.3314351,12.932776 33.9542444,13.6587903 L27.4358504,26.1982049 C27.0586596,26.9242192 27.3445603,27.8185336 28.0755885,28.1952724 C28.2942601,28.3065335 28.5277928,28.3600515 28.7584949,28.3600515 C29.2977432,28.3600515 29.8171766,28.0671108 30.0811394,27.5579853 L36.598118,15.0199791 C36.9774318,14.2925564 36.6915311,13.4003546 35.9612106,13.0236159 Z" id="Path" fill="#000000" fill-rule="nonzero" mask="url(#mask-2)"></path>
                <path d="M39.0962106,27.8621931 C39.3906034,28.1924556 39.7996395,28.3600515 40.2086757,28.3600515 C40.5625131,28.3600515 40.9149353,28.2375234 41.1980052,27.9861295 L48.2860776,21.7174785 C48.6038237,21.4358047 48.7864038,21.0337153 48.7864038,20.609092 C48.7864038,20.1879896 48.6038237,19.7823793 48.2860776,19.5021139 L41.1980052,13.2334629 C40.5844511,12.6905366 39.641828,12.745463 39.0955029,13.355991 C38.5484702,13.9679274 38.6050842,14.9044928 39.2200537,15.4495317 L45.0555414,20.6097962 L39.2200537,25.7714691 C38.6057919,26.3150996 38.5491779,27.2502567 39.0962106,27.8621931 Z" id="Path" fill="#000000" fill-rule="nonzero" mask="url(#mask-2)"></path>
                <path d="M16.0387452,19.5014097 C15.7209991,19.7816752 15.5398344,20.1879896 15.5398344,20.6083878 C15.5398344,21.0337153 15.7209991,21.4351005 16.0387452,21.7167743 L23.1268176,27.9854254 C23.4098875,28.2368192 23.763725,28.3593474 24.1147318,28.3593474 C24.5251833,28.3593474 24.9342194,28.1917514 25.2300275,27.8614889 C25.7749372,27.2495525 25.7190309,26.3143954 25.1054767,25.7693565 L19.2685737,20.6076836 L25.1054767,15.4474191 C25.7190309,14.9030845 25.7742296,13.9658148 25.2286122,13.3538784 C24.6829948,12.7433504 23.7410794,12.6870156 23.1261099,13.2313503 L16.0387452,19.5014097 Z" id="Path" fill="#000000" fill-rule="nonzero" mask="url(#mask-2)"></path>
                <path d="M12.836516,35.473724 C12.836516,36.2919865 13.5024382,36.9553284 14.3254641,36.9553284 L27.2546856,36.9553284 C28.0770039,36.9553284 28.7436337,36.2926907 28.7436337,35.473724 C28.7436337,34.6547574 28.0777116,33.9921197 27.2546856,33.9921197 L14.3254641,33.9921197 C13.5024382,33.9921197 12.836516,34.6547574 12.836516,35.473724 Z" id="Path" fill="#000000" fill-rule="nonzero" mask="url(#mask-2)"></path>
                <path d="M32.1949645,33.9921197 C31.3726462,33.9921197 30.7053087,34.6547574 30.7053087,35.473724 C30.7053087,36.2926907 31.3726462,36.9553284 32.1949645,36.9553284 L34.6576733,36.9553284 C35.4799916,36.9553284 36.1466214,36.2926907 36.1466214,35.473724 C36.1466214,34.6547574 35.4806993,33.9921197 34.6576733,33.9921197 L32.1949645,33.9921197 Z" id="Path" fill="#000000" fill-rule="nonzero" mask="url(#mask-2)"></path>
                <path d="M50.9886883,33.9921197 L40.8307219,33.9921197 C40.0084036,33.9921197 39.3417738,34.6547574 39.3417738,35.473724 C39.3417738,36.2926907 40.007696,36.9553284 40.8307219,36.9553284 L50.9886883,36.9553284 C51.8110066,36.9553284 52.478344,36.2926907 52.478344,35.473724 C52.478344,34.6547574 51.8110066,33.9921197 50.9886883,33.9921197 Z" id="Path" fill="#000000" fill-rule="nonzero" mask="url(#mask-2)"></path>
                <path d="M14.3247565,42.8880834 L16.6784834,42.8880834 C17.5008017,42.8880834 18.1674315,42.2240373 18.1674315,41.406479 C18.1674315,40.5882166 17.5015093,39.9241705 16.6784834,39.9241705 L14.3247565,39.9241705 C13.5024382,39.9241705 12.8358084,40.5882166 12.8358084,41.406479 C12.836516,42.2240373 13.5024382,42.8880834 14.3247565,42.8880834 Z" id="Path" fill="#000000" fill-rule="nonzero" mask="url(#mask-2)"></path>
                <path d="M40.4768845,41.406479 C40.4768845,40.5882166 39.8109623,39.9241705 38.9879364,39.9241705 L22.6632905,39.9241705 C21.8409722,39.9241705 21.1743424,40.5882166 21.1743424,41.406479 C21.1743424,42.2233331 21.8402645,42.8880834 22.6632905,42.8880834 L38.9879364,42.8880834 C39.8109623,42.8880834 40.4768845,42.2240373 40.4768845,41.406479 Z" id="Path" fill="#000000" fill-rule="nonzero" mask="url(#mask-2)"></path>
                <path d="M50.9886883,39.9241705 L44.1065493,39.9241705 C43.284231,39.9241705 42.6176012,40.5882166 42.6176012,41.406479 C42.6176012,42.2233331 43.2835233,42.8880834 44.1065493,42.8880834 L50.9886883,42.8880834 C51.8110066,42.8880834 52.478344,42.2240373 52.478344,41.406479 C52.478344,40.5882166 51.8110066,39.9241705 50.9886883,39.9241705 Z" id="Path" fill="#000000" fill-rule="nonzero" mask="url(#mask-2)"></path>
                <path d="M14.6453332,46.3759095 C13.8230149,46.3759095 13.1563851,47.0385472 13.1563851,47.8575138 C13.1563851,48.6764805 13.8223072,49.3391182 14.6453332,49.3391182 L29.6353041,49.3391182 C30.4576224,49.3391182 31.1249599,48.6764805 31.1249599,47.8575138 C31.1249599,47.0385472 30.4576224,46.3759095 29.6353041,46.3759095 L14.6453332,46.3759095 Z" id="Path" fill="#000000" fill-rule="nonzero" mask="url(#mask-2)"></path>
                <path d="M34.6180435,49.338414 L39.0438427,49.338414 C39.866161,49.338414 40.5334985,48.6757763 40.5334985,47.8568097 C40.5334985,47.037843 39.866161,46.3752053 39.0438427,46.3752053 L34.6180435,46.3752053 C33.7957252,46.3752053 33.1283877,47.037843 33.1283877,47.8568097 C33.1283877,48.6757763 33.7957252,49.338414 34.6180435,49.338414 Z" id="Path" fill="#000000" fill-rule="nonzero" mask="url(#mask-2)"></path>
            </g>
        </g>
    </g>
</svg>