<?xml version="1.0" encoding="UTF-8"?>
<svg width="64px" height="64px" viewBox="0 0 64 64" version="1.1" xmlns="http://www.w3.org/2000/svg" xmlns:xlink="http://www.w3.org/1999/xlink">
    <title>Design</title>
    <defs>
        <rect id="path-1" x="0" y="0" width="64" height="64"></rect>
    </defs>
    <g id="Page-1" stroke="none" stroke-width="1" fill="none" fill-rule="evenodd">
        <g id="Artboard" transform="translate(-416.000000, -85.000000)">
            <g id="Design" transform="translate(416.000000, 85.000000)">
                <mask id="mask-2" fill="white">
                    <use xlink:href="#path-1"></use>
                </mask>
                <g id="Mask"></g>
                <path d="M45.9626377,21.0724845 C45.2611191,21.0724845 44.6407724,21.4270249 44.274155,21.9635979 L39.3930909,21.9635979 C41.5546282,20.7803856 43.2828905,19.1214543 43.6199419,16.4486435 C44.3746791,16.2613192 45.0729723,15.891433 45.6390253,15.335281 C46.4641831,14.5230132 46.9178855,13.4451047 46.9178855,12.298934 C46.9178855,9.9288053 44.9606219,8.00158749 42.5534187,8.00158749 C40.146753,8.00158749 38.1889518,9.92933447 38.1889518,12.298934 C38.1889518,14.2483767 39.523181,15.8792623 41.3358405,16.4010186 C40.9283684,18.6346228 38.9861564,19.9130847 35.8543195,21.1079386 C35.1264604,19.7321104 33.6788056,18.7796139 31.9924732,18.7796139 C30.3115164,18.7796139 28.8649367,19.7336979 28.1381528,21.1111136 C25.0052407,19.9289596 23.0619536,18.6515561 22.6566318,16.4036645 C23.3527747,16.206286 23.9983868,15.8549207 24.5268104,15.3358101 C25.3519683,14.5235423 25.8067458,13.4456338 25.8056707,12.3005214 C25.8067458,9.92986363 23.848407,8.00105833 21.4390536,8 C19.0334631,8.00105833 17.0767369,9.92933447 17.0767369,12.2984048 C17.0756618,13.4456338 17.5304394,14.5235423 18.353447,15.3347518 C18.9194999,15.8919622 19.616718,16.2629067 20.3714552,16.4497018 C20.7294716,19.1616708 22.5743848,20.8486479 24.5692778,21.9635979 L19.724768,21.9635979 C19.3581506,21.4270249 18.7367288,21.0724845 18.0335975,21.0724845 C16.9122429,21.0724845 16,21.9715353 16,23.0774896 C16,24.1802688 16.9122429,25.0782613 18.0335975,25.0782613 L18.0357478,25.0782613 C18.7383415,25.0782613 19.3586881,24.7258376 19.7253055,24.1903229 L27.8000262,24.1903229 C28.1634182,25.5090013 29.1374807,26.5768557 30.4174162,27.0684497 L21.8459881,41.8321446 C21.6159115,42.2279597 21.6551535,42.7200829 21.9427493,43.0767399 L24.8278452,46.6528349 L24.8267701,49.9950391 L24.8267701,54.8866375 C24.8267701,55.5015269 25.3336912,56 25.9583383,56 L38.1093926,56 C38.7340398,56 39.2404233,55.502056 39.2404233,54.8866375 L39.2404233,49.9950391 L39.2393482,46.6464849 L42.0636996,43.0672149 C42.3448446,42.7116163 42.3797861,42.2237264 42.1529349,41.8321446 L33.5836571,27.0684497 C34.8603671,26.5752682 35.8338921,25.507943 36.1967466,24.1903229 L44.2746926,24.1903229 C44.64131,24.7258376 45.2616566,25.0782613 45.9653255,25.0782613 C45.9653255,25.0782613 45.9674757,25.0782613 45.969626,25.0782613 C47.0899054,25.0750863 48.0010732,24.1760355 48,23.0774896 C47.9983854,21.9720645 47.0850674,21.0724845 45.9626377,21.0724845 Z M40.4504756,12.298934 C40.4504756,11.1569965 41.3933596,10.2288417 42.556644,10.2288417 C43.7145529,10.2288417 44.6552905,11.1569965 44.6552905,12.2999923 C44.6563617,12.8508527 44.4370363,13.3694341 44.0397779,13.7604868 C43.641982,14.1510104 43.1135584,14.3669096 42.551806,14.3669096 C41.3933596,14.3669096 40.4504756,13.4392839 40.4504756,12.298934 Z M19.3387984,12.298934 C19.3387984,11.1559382 20.2806072,10.2277834 21.438516,10.226725 C22.5996502,10.2277834 23.5436093,11.1559382 23.5425351,12.2999923 C23.5425351,12.8497944 23.3242839,13.3694341 22.926488,13.7604868 C22.5297671,14.1510104 22.0002684,14.3669096 21.438516,14.3669096 L21.4363658,14.3669096 C20.8756885,14.3669096 20.3488776,14.1520687 19.9526943,13.761016 C19.5559734,13.3710216 19.3387984,12.8508527 19.3387984,12.298934 Z M36.9772868,53.773275 L27.0882939,53.773275 L27.0882939,51.1099891 L36.9772868,51.1099891 L36.9772868,53.773275 Z M37.2138141,45.5818056 C37.0606089,45.7770673 36.9767492,46.0178373 36.9767492,46.2649572 L36.9778243,48.8827349 L27.0882939,48.8827349 L27.0893691,46.2649572 C27.0893691,46.0136039 27.0033591,45.769659 26.8437032,45.5722806 L24.1886838,42.2824637 L30.8673557,30.78054 L30.8673557,37.7125974 C29.9255468,38.1375167 29.2659581,39.070434 29.2659581,40.1546925 C29.2659581,41.6379411 30.4910622,42.8449658 31.9989239,42.8449658 C33.5057106,42.8449658 34.7318898,41.6379411 34.7318898,40.1557508 C34.7329649,39.436616 34.4485945,38.7614018 33.9330724,38.2539329 C33.6976202,38.0221588 33.4240011,37.8448886 33.1310298,37.7125974 L33.1310298,30.78054 L39.812927,42.289872 L37.2138141,45.5818056 Z M31.9989239,25.144936 L31.9956986,25.144936 C30.8367146,25.144936 29.8938306,24.2167811 29.8938306,23.0780187 C29.8949058,21.9360813 30.8367146,21.0068681 31.9999991,21.0068681 C33.158983,21.0068681 34.1007918,21.9360813 34.1007918,23.0780187 C34.1007918,24.2167811 33.1579079,25.144936 31.9989239,25.144936 Z" id="Shape" fill="#000000" fill-rule="nonzero" mask="url(#mask-2)"></path>
            </g>
        </g>
    </g>
</svg>