<svg xmlns="http://www.w3.org/2000/svg" width="24" height="24" viewBox="0 0 24 24">
    <path fill="#393939" fill-rule="nonzero" d="M18 0v2.406H9v1.117c0 .816-.672 1.5-1.5 1.5S6 4.34 6 3.523V2.406l-.001-.017-2.595-.004a1 1 0 0 0-1.001 1l-.001 2.614h19.185V3.417a1 1 0 0 0-.882-.993l-.116-.007L18 2.41V0h3.5c1.203 0 2.5.768 2.5 2.535V21a3 3 0 0 1-3 3H3a3 3 0 0 1-3-3V2.535C0 1.178.921 0 2.523 0H18zm3.587 8.406H2.402v12.207a1 1 0 0 0 .884.994l.117.006h17.184a1 1 0 0 0 1-1V8.406zM8.7 17c.441 0 .8.448.8 1s-.359 1-.8 1H6.3c-.441 0-.8-.448-.8-1s.359-1 .8-1zm9 0c.441 0 .8.448.8 1s-.359 1-.8 1h-2.4c-.441 0-.8-.448-.8-1s.359-1 .8-1zM7.51 10c1.103 0 1.99.91 1.99 2.02 0 1.109-.887 1.98-1.99 1.98a2.02 2.02 0 0 1-2.01-2c0-1.09.906-2 2.01-2zm10.19 1c.441 0 .8.448.8 1s-.359 1-.8 1h-2.4c-.441 0-.8-.448-.8-1s.359-1 .8-1zM7.5 11c-.535 0-1 .455-1 1a1 1 0 0 0 2 0c0-.545-.465-1-1-1zM15 2.406l3 .005v1.112c0 .819-.672 1.5-1.5 1.5s-1.5-.689-1.5-1.5V2.406z"/>
</svg>
