<?xml version="1.0" encoding="UTF-8"?>
<svg width="64px" height="64px" viewBox="0 0 64 64" version="1.1" xmlns="http://www.w3.org/2000/svg" xmlns:xlink="http://www.w3.org/1999/xlink">
    <title>Agile</title>
    <defs>
        <rect id="path-1" x="0" y="0" width="64" height="64"></rect>
    </defs>
    <g id="Page-1" stroke="none" stroke-width="1" fill="none" fill-rule="evenodd">
        <g id="Artboard" transform="translate(-141.000000, -85.000000)">
            <g id="Agile" transform="translate(141.000000, 85.000000)">
                <mask id="mask-2" fill="white">
                    <use xlink:href="#path-1"></use>
                </mask>
                <g id="Mask"></g>
                <path d="M25.8452498,16.6160052 C26.4713383,16.3462477 26.7627327,15.6178436 26.4976691,14.985655 C26.2314352,14.3552372 25.5093855,14.0600978 24.8827119,14.3286746 C17.853552,17.3408676 13.3111922,24.2654287 13.3111922,31.9703385 C13.3111922,37.0880561 15.2871743,41.9000092 18.8746029,45.5166477 C19.1145059,45.7598426 19.4298907,45.8820303 19.7441052,45.8820303 C20.05949,45.8820303 20.3748747,45.7598426 20.6147778,45.5166477 C21.0957542,45.0326191 21.0957542,44.2463676 20.6147778,43.7617487 C17.4925272,40.6120208 15.774002,36.4245827 15.774002,31.9697482 C15.774002,25.2635902 19.7265513,19.236253 25.8452498,16.6160052 Z" id="Path" fill="#000000" fill-rule="nonzero" mask="url(#mask-2)"></path>
                <path d="M52.1304341,55.6369785 C52.3715074,55.8789928 52.6868922,56 53.0011067,56 C53.3164914,56 53.6318762,55.8789928 53.8717793,55.6369785 L58.6382436,50.8273865 C59.1203902,50.3433578 59.1203902,49.5571064 58.6394139,49.0713069 L53.8717793,44.2617149 C53.3919731,43.7765057 52.6125807,43.7776862 52.1310192,44.2617149 C51.6500428,44.7469241 51.6500428,45.531995 52.1298489,46.0177944 L54.73426,48.6463061 L45.9403498,48.6463061 C45.2604294,48.6463061 44.7092375,49.2017585 44.7092375,49.8882528 C44.7092375,50.5747471 45.2598443,51.1301995 45.9403498,51.1301995 L54.8583075,51.1301995 L52.1304341,53.8808989 C51.6500428,54.3655179 51.6500428,55.1517693 52.1304341,55.6369785 Z" id="Path" fill="#000000" fill-rule="nonzero" mask="url(#mask-2)"></path>
                <path d="M7.23111232,55.1860055 L15.2754717,55.1860055 C15.9553921,55.1860055 16.5071692,54.6305531 16.5071692,53.9440588 L16.5071692,51.1284287 L32.3033233,51.1284287 C40.7970621,51.1284287 48.2129925,45.451717 50.5418077,37.2675008 C53.2023912,36.9204169 55.4112548,34.9848926 56.0572377,32.297353 C56.216978,31.6309282 55.8114833,30.9586005 55.1508722,30.7968641 C54.4902611,30.6368986 53.8237986,31.0447813 53.6640583,31.7106158 C53.2193599,33.5629108 51.587434,34.8550312 49.6951254,34.8550312 C47.4435473,34.8550312 45.6115071,33.0068681 45.6115071,30.7354751 C45.6115071,28.4640821 47.4435473,26.6159191 49.6951254,26.6159191 C50.7454327,26.6159191 51.7489297,27.0344268 52.500821,27.7539767 L50.5137214,29.7532511 L50.0391815,29.0821041 C49.643634,28.5242906 48.8759442,28.3950195 48.3212415,28.7928675 C47.7682942,29.191896 47.6389806,29.9663418 48.0345281,30.5259262 L49.3522395,32.3894365 C49.5611307,32.686937 49.8905586,32.8758262 50.2515835,32.9059305 C50.2861061,32.9082916 50.3188733,32.9106527 50.353396,32.9106527 C50.6793131,32.9106527 50.9911871,32.7802011 51.2228983,32.5476312 L57.3913328,26.3461617 C57.8734794,25.8609524 57.8746497,25.074701 57.3948436,24.587721 C56.9150374,24.1036923 56.1344748,24.1013312 55.6529132,24.5853599 L54.2427513,26.0032096 C53.0315334,24.822652 51.4025331,24.1320257 49.6957105,24.1320257 C49.6728905,24.1320257 49.6500704,24.1355674 49.6249098,24.1355674 C46.6395795,17.4152427 40.1668777,13.0483598 32.8708989,12.8317275 L35.5578132,10.1199865 C36.0376193,9.63477726 36.0376193,8.8497064 35.5578132,8.36390691 C35.0768368,7.8786977 34.2962741,7.8786977 33.8158829,8.36390691 L29.0476632,13.1746795 C28.5666868,13.6587082 28.5666868,14.4449596 29.0476632,14.9295785 L33.8158829,19.7391705 C34.0569562,19.9811849 34.372341,20.1033726 34.6865555,20.1033726 C35.0019402,20.1033726 35.317325,19.9811849 35.5572281,19.7391705 C36.0382045,19.2539613 36.0382045,18.4688905 35.5572281,17.9819104 L32.9136133,15.3162111 C39.033482,15.5422879 44.4781114,19.1193777 47.1509826,24.6508808 C44.8022731,25.6549451 43.1498676,28.0048452 43.1498676,30.7348849 C43.1498676,33.7913487 45.2206406,36.3614228 48.0181444,37.1104867 C45.8274198,43.9470963 39.5097774,48.643945 32.3027382,48.643945 L16.5071692,48.643945 L16.5071692,45.8277247 C16.5071692,45.1418206 15.9553921,44.5851877 15.2754717,44.5851877 L7.23111232,44.5851877 C6.55119192,44.5851877 6,45.1418206 6,45.8277247 L6,53.9446491 C6,54.6305531 6.55119192,55.1860055 7.23111232,55.1860055 Z M8.46280977,47.0708519 L14.0443594,47.0708519 L14.0443594,52.7015218 L8.46280977,52.7015218 L8.46280977,47.0708519 Z" id="Shape" fill="#000000" fill-rule="nonzero" mask="url(#mask-2)"></path>
            </g>
        </g>
    </g>
</svg>